Normalized EMG Linear Envelopes
nRows=43
nColumns=17

endheader
time	        VM	        VL	        RF	       GRA	        TA	   ADDLONG	   SEMIMEM	      BFLH	        GM	        GL	       TFL	   GLUTMAX	   GLUTMED	      PIRI	    OBTINT	        QF	
2.1025	  0.402646	  0.405202	  0.062651	  0.127900	  0.121868	  0.041138	  0.234017	  0.419560	  0.806838	  0.658463	  0.069397	  0.203328	  0.238614	  0.392176	  0.796411	  0.630280	
2.103	  0.395499	  0.400767	  0.061936	  0.126744	  0.121449	  0.041099	  0.231161	  0.417420	  0.802788	  0.656859	  0.069442	  0.198818	  0.237832	  0.392480	  0.795555	  0.624566	
2.1035	  0.388405	  0.396293	  0.061219	  0.125603	  0.121026	  0.041077	  0.228329	  0.415219	  0.798636	  0.655181	  0.069489	  0.194360	  0.237079	  0.392776	  0.794724	  0.618913	
2.104	  0.381364	  0.391781	  0.060500	  0.124477	  0.120601	  0.041071	  0.225521	  0.412956	  0.794385	  0.653427	  0.069538	  0.189955	  0.236354	  0.393063	  0.793918	  0.613320	
2.1045	  0.374376	  0.387233	  0.059780	  0.123368	  0.120173	  0.041081	  0.222736	  0.410631	  0.790037	  0.651597	  0.069588	  0.185603	  0.235659	  0.393341	  0.793136	  0.607787	
2.105	  0.367442	  0.382652	  0.059058	  0.122276	  0.119742	  0.041109	  0.219977	  0.408244	  0.785595	  0.649690	  0.069641	  0.181304	  0.234996	  0.393607	  0.792378	  0.602313	
2.1055	  0.360562	  0.378038	  0.058335	  0.121203	  0.119307	  0.041153	  0.217242	  0.405797	  0.781060	  0.647706	  0.069696	  0.177058	  0.234366	  0.393861	  0.791644	  0.596897	
2.106	  0.353737	  0.373393	  0.057612	  0.120148	  0.118870	  0.041216	  0.214532	  0.403290	  0.776435	  0.645646	  0.069755	  0.172866	  0.233770	  0.394100	  0.790931	  0.591539	
2.1065	  0.346968	  0.368719	  0.056887	  0.119112	  0.118430	  0.041296	  0.211847	  0.400724	  0.771721	  0.643508	  0.069816	  0.168726	  0.233208	  0.394323	  0.790240	  0.586237	
2.107	  0.340256	  0.364019	  0.056162	  0.118096	  0.117987	  0.041394	  0.209188	  0.398103	  0.766921	  0.641293	  0.069881	  0.164641	  0.232684	  0.394527	  0.789568	  0.580990	
2.1075	  0.333600	  0.359292	  0.055437	  0.117101	  0.117542	  0.041511	  0.206555	  0.395426	  0.762036	  0.639001	  0.069950	  0.160609	  0.232197	  0.394712	  0.788914	  0.575797	
2.108	  0.327001	  0.354542	  0.054712	  0.116127	  0.117093	  0.041647	  0.203948	  0.392696	  0.757069	  0.636630	  0.070023	  0.156632	  0.231749	  0.394875	  0.788277	  0.570657	
2.1085	  0.320460	  0.349771	  0.053987	  0.115175	  0.116643	  0.041802	  0.201366	  0.389915	  0.752023	  0.634182	  0.070100	  0.152708	  0.231341	  0.395014	  0.787655	  0.565570	
2.109	  0.313978	  0.344981	  0.053263	  0.114246	  0.116189	  0.041976	  0.198811	  0.387083	  0.746899	  0.631655	  0.070183	  0.148839	  0.230975	  0.395126	  0.787047	  0.560534	
2.1095	  0.307555	  0.340173	  0.052540	  0.113339	  0.115734	  0.042170	  0.196282	  0.384203	  0.741702	  0.629049	  0.070269	  0.145025	  0.230651	  0.395210	  0.786450	  0.555549	
2.11	  0.301191	  0.335351	  0.051818	  0.112457	  0.115277	  0.042384	  0.193780	  0.381276	  0.736432	  0.626363	  0.070362	  0.141265	  0.230371	  0.395263	  0.785865	  0.550614	
2.1105	  0.294887	  0.330517	  0.051097	  0.111598	  0.114818	  0.042618	  0.191303	  0.378303	  0.731092	  0.623597	  0.070459	  0.137560	  0.230135	  0.395283	  0.785288	  0.545729	
2.111	  0.288644	  0.325672	  0.050377	  0.110765	  0.114358	  0.042872	  0.188852	  0.375287	  0.725684	  0.620751	  0.070562	  0.133910	  0.229945	  0.395268	  0.784720	  0.540892	
2.1115	  0.282461	  0.320821	  0.049660	  0.109957	  0.113898	  0.043147	  0.186428	  0.372228	  0.720211	  0.617823	  0.070671	  0.130314	  0.229801	  0.395214	  0.784157	  0.536104	
2.112	  0.276339	  0.315964	  0.048944	  0.109175	  0.113438	  0.043442	  0.184029	  0.369129	  0.714675	  0.614814	  0.070786	  0.126774	  0.229705	  0.395120	  0.783600	  0.531365	
2.1125	  0.270278	  0.311104	  0.048231	  0.108419	  0.112978	  0.043759	  0.181656	  0.365990	  0.709078	  0.611724	  0.070907	  0.123288	  0.229658	  0.394984	  0.783045	  0.526674	
2.113	  0.264279	  0.306244	  0.047520	  0.107690	  0.112520	  0.044097	  0.179308	  0.362814	  0.703423	  0.608555	  0.071034	  0.119856	  0.229660	  0.394801	  0.782493	  0.522030	
2.1135	  0.258343	  0.301385	  0.046812	  0.106988	  0.112065	  0.044456	  0.176985	  0.359601	  0.697711	  0.605306	  0.071168	  0.116479	  0.229711	  0.394571	  0.781940	  0.517434	
2.114	  0.252469	  0.296530	  0.046107	  0.106313	  0.111611	  0.044837	  0.174688	  0.356354	  0.691946	  0.601979	  0.071308	  0.113157	  0.229814	  0.394290	  0.781384	  0.512885	
2.1145	  0.246659	  0.291681	  0.045406	  0.105667	  0.111162	  0.045241	  0.172416	  0.353072	  0.686130	  0.598574	  0.071456	  0.109889	  0.229969	  0.393957	  0.780823	  0.508384	
2.115	  0.240913	  0.286839	  0.044708	  0.105049	  0.110716	  0.045666	  0.170168	  0.349758	  0.680266	  0.595093	  0.071610	  0.106675	  0.230175	  0.393570	  0.780255	  0.503929	
2.1155	  0.235232	  0.282006	  0.044014	  0.104459	  0.110274	  0.046114	  0.167944	  0.346412	  0.674357	  0.591536	  0.071771	  0.103515	  0.230436	  0.393127	  0.779678	  0.499521	
2.116	  0.229616	  0.277185	  0.043324	  0.103898	  0.109837	  0.046584	  0.165744	  0.343036	  0.668404	  0.587906	  0.071939	  0.100409	  0.230750	  0.392626	  0.779087	  0.495158	
2.1165	  0.224067	  0.272378	  0.042638	  0.103367	  0.109406	  0.047077	  0.163568	  0.339630	  0.662413	  0.584202	  0.072115	  0.097356	  0.231119	  0.392067	  0.778481	  0.490842	
2.117	  0.218584	  0.267585	  0.041956	  0.102865	  0.108981	  0.047594	  0.161416	  0.336197	  0.656385	  0.580427	  0.072299	  0.094357	  0.231544	  0.391448	  0.777857	  0.486570	
2.1175	  0.213168	  0.262809	  0.041280	  0.102392	  0.108563	  0.048133	  0.159287	  0.332737	  0.650322	  0.576583	  0.072490	  0.091411	  0.232026	  0.390769	  0.777212	  0.482343	
2.118	  0.207820	  0.258051	  0.040608	  0.101950	  0.108152	  0.048696	  0.157181	  0.329251	  0.644229	  0.572673	  0.072689	  0.088518	  0.232565	  0.390028	  0.776544	  0.478159	
2.1185	  0.202540	  0.253314	  0.039942	  0.101538	  0.107749	  0.049283	  0.155099	  0.325742	  0.638106	  0.568700	  0.072896	  0.085678	  0.233163	  0.389227	  0.775848	  0.474019	
2.119	  0.197329	  0.248598	  0.039281	  0.101157	  0.107355	  0.049894	  0.153040	  0.322211	  0.631956	  0.564665	  0.073111	  0.082890	  0.233820	  0.388363	  0.775123	  0.469920	
2.1195	  0.192187	  0.243906	  0.038626	  0.100805	  0.106970	  0.050528	  0.151004	  0.318658	  0.625781	  0.560572	  0.073334	  0.080154	  0.234536	  0.387438	  0.774365	  0.465863	
2.12	  0.187115	  0.239239	  0.037976	  0.100485	  0.106595	  0.051187	  0.148992	  0.315086	  0.619583	  0.556424	  0.073565	  0.077470	  0.235313	  0.386452	  0.773572	  0.461846	
2.1205	  0.182112	  0.234598	  0.037333	  0.100196	  0.106231	  0.051871	  0.147003	  0.311495	  0.613364	  0.552222	  0.073805	  0.074837	  0.236152	  0.385404	  0.772740	  0.457870	
2.121	  0.177179	  0.229985	  0.036695	  0.099938	  0.105878	  0.052579	  0.145037	  0.307888	  0.607125	  0.547970	  0.074053	  0.072256	  0.237052	  0.384294	  0.771867	  0.453933	
2.1215	  0.172317	  0.225401	  0.036063	  0.099712	  0.105536	  0.053312	  0.143094	  0.304265	  0.600868	  0.543670	  0.074309	  0.069726	  0.238014	  0.383124	  0.770950	  0.450036	
2.122	  0.167525	  0.220848	  0.035438	  0.099517	  0.105207	  0.054071	  0.141175	  0.300627	  0.594595	  0.539324	  0.074574	  0.067246	  0.239039	  0.381892	  0.769986	  0.446176	
2.1225	  0.162804	  0.216327	  0.034820	  0.099355	  0.104892	  0.054855	  0.139278	  0.296977	  0.588306	  0.534935	  0.074848	  0.064816	  0.240127	  0.380599	  0.768973	  0.442355	
2.123	  0.158155	  0.211840	  0.034208	  0.099226	  0.104591	  0.055664	  0.137404	  0.293315	  0.582003	  0.530505	  0.075129	  0.062436	  0.241278	  0.379245	  0.767909	  0.438571	
2.1235	  0.153577	  0.207388	  0.033603	  0.099129	  0.104304	  0.056499	  0.135553	  0.289643	  0.575687	  0.526037	  0.075419	  0.060106	  0.242493	  0.377831	  0.766791	  0.434823	
